<svg xmlns="http://www.w3.org/2000/svg" xmlns:xlink="http://www.w3.org/1999/xlink" width="1366" zoomAndPan="magnify" viewBox="0 0 1024.5 576" height="768" preserveAspectRatio="xMidYMid meet" version="1.0"><defs><filter x="0%" y="0%" width="100%" height="100%" id="c103cfbd98"><feColorMatrix values="0 0 0 0 1 0 0 0 0 1 0 0 0 0 1 0 0 0 1 0" color-interpolation-filters="sRGB"/></filter><g/><clipPath id="d05bfa87de"><path d="M 0 0.140625 L 693 0.140625 L 693 575.859375 L 0 575.859375 Z M 0 0.140625 " clip-rule="nonzero"/></clipPath><mask id="ec138b7b3d"><g filter="url(#c103cfbd98)"><rect x="-102.45" width="1229.4" fill="#000000" y="-57.6" height="691.2" fill-opacity="0.11"/></g></mask><clipPath id="3ed322f347"><path d="M 0 0.140625 L 692 0.140625 L 692 575.488281 L 0 575.488281 Z M 0 0.140625 " clip-rule="nonzero"/></clipPath><clipPath id="59dcba357c"><rect x="0" width="693" y="0" height="576"/></clipPath><clipPath id="786a239497"><path d="M 72.566406 6.886719 L 105.546875 6.886719 L 105.546875 36 L 72.566406 36 Z M 72.566406 6.886719 " clip-rule="nonzero"/></clipPath><clipPath id="4f36ca057b"><path d="M 82 13 L 96 13 L 96 48.117188 L 82 48.117188 Z M 82 13 " clip-rule="nonzero"/></clipPath><clipPath id="2ed34c5948"><rect x="0" width="172" y="0" height="34"/></clipPath><clipPath id="2936e35089"><path d="M 23.1875 14.460938 L 53.175781 14.460938 L 53.175781 20 L 23.1875 20 Z M 23.1875 14.460938 " clip-rule="nonzero"/></clipPath><clipPath id="8ac321e6f4"><path d="M 23.1875 24 L 53.175781 24 L 53.175781 31 L 23.1875 31 Z M 23.1875 24 " clip-rule="nonzero"/></clipPath><clipPath id="b5377e71eb"><path d="M 23.1875 35 L 53.175781 35 L 53.175781 40.699219 L 23.1875 40.699219 Z M 23.1875 35 " clip-rule="nonzero"/></clipPath><clipPath id="ac6c3271da"><path d="M 0 0.140625 L 680 0.140625 L 680 575.488281 L 0 575.488281 Z M 0 0.140625 " clip-rule="nonzero"/></clipPath></defs><g clip-path="url(#d05bfa87de)"><g mask="url(#ec138b7b3d)"><g transform="matrix(1, 0, 0, 1, 0, -0.000000000000058398)"><g clip-path="url(#59dcba357c)"><g clip-path="url(#3ed322f347)"><path fill="#1c4726" d="M 679.140625 575.851562 C 432.21875 575.851562 185.316406 575.851562 -61.601562 575.851562 L -61.601562 -311.328125 C 98.710938 -311.328125 259.023438 -311.328125 419.320312 -311.328125 C 304.679688 -148.105469 304.324219 -42.175781 323.148438 23.191406 C 379.644531 219.453125 672.824219 272.007812 690.621094 479.664062 C 694.238281 521.820312 685.3125 556.617188 679.140625 575.851562 Z M 679.140625 575.851562 " fill-opacity="1" fill-rule="nonzero"/></g></g></g></g></g><g clip-path="url(#786a239497)"><path fill="#ffffff" d="M 99.4375 17.183594 C 99.320312 11.496094 94.652344 6.90625 88.929688 6.90625 C 83.214844 6.90625 78.550781 11.496094 78.433594 17.183594 C 74.925781 18.652344 72.5625 22.128906 72.5625 25.988281 C 72.5625 31.25 76.84375 35.53125 82.105469 35.53125 L 83.59375 35.53125 C 84.363281 35.53125 84.988281 34.90625 84.988281 34.136719 C 84.988281 33.367188 84.363281 32.742188 83.59375 32.742188 L 82.105469 32.742188 C 78.382812 32.742188 75.351562 29.714844 75.351562 25.988281 C 75.351562 22.996094 77.367188 20.328125 80.25 19.5 C 80.882812 19.316406 81.296875 18.664062 81.25 18.003906 C 81.234375 17.804688 81.222656 17.613281 81.222656 17.40625 C 81.222656 13.152344 84.679688 9.695312 88.929688 9.695312 C 93.1875 9.695312 96.652344 13.152344 96.652344 17.40625 C 96.652344 17.613281 96.636719 17.804688 96.617188 18.058594 C 96.570312 18.714844 96.988281 19.316406 97.625 19.5 C 100.5 20.324219 102.511719 22.996094 102.511719 25.988281 C 102.511719 29.714844 99.480469 32.742188 95.757812 32.742188 L 94.277344 32.742188 C 93.507812 32.742188 92.882812 33.367188 92.882812 34.136719 C 92.882812 34.90625 93.507812 35.53125 94.277344 35.53125 L 95.757812 35.53125 C 101.019531 35.53125 105.300781 31.25 105.300781 25.988281 C 105.300781 22.128906 102.9375 18.652344 99.4375 17.183594 Z M 99.4375 17.183594 " fill-opacity="1" fill-rule="nonzero"/></g><g clip-path="url(#4f36ca057b)"><path fill="#ffffff" d="M 94.550781 27.285156 C 95.140625 26.792969 95.222656 25.914062 94.730469 25.320312 C 94.238281 24.726562 93.359375 24.648438 92.765625 25.140625 L 90.328125 27.167969 L 90.328125 22.554688 L 93.046875 20.425781 C 93.652344 19.953125 93.757812 19.074219 93.285156 18.46875 C 92.808594 17.863281 91.933594 17.753906 91.324219 18.230469 L 90.328125 19.011719 L 90.328125 14.832031 C 90.328125 14.0625 89.703125 13.4375 88.933594 13.4375 C 88.164062 13.4375 87.539062 14.0625 87.539062 14.832031 L 87.539062 19.011719 L 86.542969 18.230469 C 85.933594 17.753906 85.058594 17.863281 84.585938 18.46875 C 84.109375 19.074219 84.214844 19.953125 84.820312 20.425781 L 87.539062 22.554688 L 87.539062 27.167969 L 85.101562 25.140625 C 84.507812 24.648438 83.628906 24.726562 83.136719 25.320312 C 82.644531 25.914062 82.726562 26.792969 83.316406 27.285156 L 87.539062 30.796875 L 87.539062 46.785156 C 87.539062 47.554688 88.164062 48.179688 88.933594 48.179688 C 89.703125 48.179688 90.328125 47.554688 90.328125 46.785156 L 90.328125 30.796875 Z M 94.550781 27.285156 " fill-opacity="1" fill-rule="nonzero"/></g><g transform="matrix(1, 0, 0, 1, 110, 10)"><g clip-path="url(#2ed34c5948)"><g fill="#ffffff" fill-opacity="1"><g transform="translate(0.614282, 26.386305)"><g><path d="M 5.6875 -8.90625 L 6.859375 -8.90625 C 7.960938 -8.90625 8.785156 -9.125 9.328125 -9.5625 C 9.867188 -10 10.140625 -10.628906 10.140625 -11.453125 C 10.140625 -12.285156 9.910156 -12.898438 9.453125 -13.296875 C 8.992188 -13.703125 8.28125 -13.90625 7.3125 -13.90625 L 5.6875 -13.90625 Z M 13.75 -11.578125 C 13.75 -9.765625 13.179688 -8.378906 12.046875 -7.421875 C 10.910156 -6.460938 9.300781 -5.984375 7.21875 -5.984375 L 5.6875 -5.984375 L 5.6875 0 L 2.125 0 L 2.125 -16.828125 L 7.5 -16.828125 C 9.539062 -16.828125 11.09375 -16.382812 12.15625 -15.5 C 13.21875 -14.625 13.75 -13.316406 13.75 -11.578125 Z M 13.75 -11.578125 "/></g></g><g transform="translate(15.415535, 26.386305)"><g><path d="M 9.03125 -13.109375 C 9.5 -13.109375 9.894531 -13.078125 10.21875 -13.015625 L 9.953125 -9.71875 C 9.660156 -9.789062 9.3125 -9.828125 8.90625 -9.828125 C 7.789062 -9.828125 6.921875 -9.539062 6.296875 -8.96875 C 5.671875 -8.394531 5.359375 -7.585938 5.359375 -6.546875 L 5.359375 0 L 1.84375 0 L 1.84375 -12.875 L 4.5 -12.875 L 5.015625 -10.703125 L 5.1875 -10.703125 C 5.59375 -11.429688 6.132812 -12.015625 6.8125 -12.453125 C 7.488281 -12.890625 8.226562 -13.109375 9.03125 -13.109375 Z M 9.03125 -13.109375 "/></g></g><g transform="translate(26.119396, 26.386305)"><g><path d="M 4.640625 -6.453125 C 4.640625 -5.179688 4.847656 -4.21875 5.265625 -3.5625 C 5.679688 -2.914062 6.363281 -2.59375 7.3125 -2.59375 C 8.25 -2.59375 8.921875 -2.914062 9.328125 -3.5625 C 9.742188 -4.207031 9.953125 -5.171875 9.953125 -6.453125 C 9.953125 -7.734375 9.742188 -8.691406 9.328125 -9.328125 C 8.910156 -9.960938 8.226562 -10.28125 7.28125 -10.28125 C 6.351562 -10.28125 5.679688 -9.960938 5.265625 -9.328125 C 4.847656 -8.691406 4.640625 -7.734375 4.640625 -6.453125 Z M 13.53125 -6.453125 C 13.53125 -4.359375 12.976562 -2.71875 11.875 -1.53125 C 10.769531 -0.351562 9.234375 0.234375 7.265625 0.234375 C 6.023438 0.234375 4.929688 -0.0351562 3.984375 -0.578125 C 3.046875 -1.117188 2.320312 -1.894531 1.8125 -2.90625 C 1.3125 -3.925781 1.0625 -5.109375 1.0625 -6.453125 C 1.0625 -8.554688 1.609375 -10.191406 2.703125 -11.359375 C 3.804688 -12.523438 5.347656 -13.109375 7.328125 -13.109375 C 8.566406 -13.109375 9.65625 -12.835938 10.59375 -12.296875 C 11.539062 -11.765625 12.265625 -10.992188 12.765625 -9.984375 C 13.273438 -8.984375 13.53125 -7.804688 13.53125 -6.453125 Z M 13.53125 -6.453125 "/></g></g><g transform="translate(40.713478, 26.386305)"><g><path d="M 0.8125 5.671875 C -0.09375 5.671875 -0.867188 5.570312 -1.515625 5.375 L -1.515625 2.609375 C -0.972656 2.753906 -0.421875 2.828125 0.140625 2.828125 C 0.734375 2.828125 1.164062 2.660156 1.4375 2.328125 C 1.707031 2.003906 1.84375 1.519531 1.84375 0.875 L 1.84375 -12.875 L 5.359375 -12.875 L 5.359375 1.390625 C 5.359375 2.753906 4.960938 3.804688 4.171875 4.546875 C 3.378906 5.296875 2.257812 5.671875 0.8125 5.671875 Z M 1.6875 -16.203125 C 1.6875 -17.335938 2.328125 -17.90625 3.609375 -17.90625 C 4.878906 -17.90625 5.515625 -17.335938 5.515625 -16.203125 C 5.515625 -15.648438 5.351562 -15.222656 5.03125 -14.921875 C 4.71875 -14.617188 4.242188 -14.46875 3.609375 -14.46875 C 2.328125 -14.46875 1.6875 -15.046875 1.6875 -16.203125 Z M 1.6875 -16.203125 "/></g></g><g transform="translate(47.906933, 26.386305)"><g><path d="M 7.171875 -10.609375 C 6.429688 -10.609375 5.847656 -10.375 5.421875 -9.90625 C 5.003906 -9.4375 4.765625 -8.765625 4.703125 -7.890625 L 9.625 -7.890625 C 9.613281 -8.765625 9.390625 -9.4375 8.953125 -9.90625 C 8.515625 -10.375 7.921875 -10.609375 7.171875 -10.609375 Z M 7.671875 0.234375 C 5.597656 0.234375 3.976562 -0.335938 2.8125 -1.484375 C 1.644531 -2.628906 1.0625 -4.25 1.0625 -6.34375 C 1.0625 -8.5 1.597656 -10.164062 2.671875 -11.34375 C 3.753906 -12.519531 5.25 -13.109375 7.15625 -13.109375 C 8.96875 -13.109375 10.378906 -12.585938 11.390625 -11.546875 C 12.410156 -10.515625 12.921875 -9.085938 12.921875 -7.265625 L 12.921875 -5.5625 L 4.609375 -5.5625 C 4.648438 -4.5625 4.945312 -3.78125 5.5 -3.21875 C 6.050781 -2.664062 6.828125 -2.390625 7.828125 -2.390625 C 8.597656 -2.390625 9.328125 -2.46875 10.015625 -2.625 C 10.710938 -2.78125 11.4375 -3.035156 12.1875 -3.390625 L 12.1875 -0.671875 C 11.570312 -0.367188 10.914062 -0.144531 10.21875 0 C 9.519531 0.15625 8.671875 0.234375 7.671875 0.234375 Z M 7.671875 0.234375 "/></g></g><g transform="translate(61.833462, 26.386305)"><g><path d="M 7.265625 -2.5625 C 7.878906 -2.5625 8.613281 -2.695312 9.46875 -2.96875 L 9.46875 -0.359375 C 8.59375 0.0351562 7.519531 0.234375 6.25 0.234375 C 4.84375 0.234375 3.816406 -0.117188 3.171875 -0.828125 C 2.535156 -1.546875 2.21875 -2.613281 2.21875 -4.03125 L 2.21875 -10.234375 L 0.546875 -10.234375 L 0.546875 -11.71875 L 2.46875 -12.890625 L 3.484375 -15.609375 L 5.734375 -15.609375 L 5.734375 -12.875 L 9.34375 -12.875 L 9.34375 -10.234375 L 5.734375 -10.234375 L 5.734375 -4.03125 C 5.734375 -3.53125 5.875 -3.160156 6.15625 -2.921875 C 6.4375 -2.679688 6.804688 -2.5625 7.265625 -2.5625 Z M 7.265625 -2.5625 "/></g></g><g transform="translate(72.065432, 26.386305)"><g><path d="M 4.640625 -6.453125 C 4.640625 -5.179688 4.847656 -4.21875 5.265625 -3.5625 C 5.679688 -2.914062 6.363281 -2.59375 7.3125 -2.59375 C 8.25 -2.59375 8.921875 -2.914062 9.328125 -3.5625 C 9.742188 -4.207031 9.953125 -5.171875 9.953125 -6.453125 C 9.953125 -7.734375 9.742188 -8.691406 9.328125 -9.328125 C 8.910156 -9.960938 8.226562 -10.28125 7.28125 -10.28125 C 6.351562 -10.28125 5.679688 -9.960938 5.265625 -9.328125 C 4.847656 -8.691406 4.640625 -7.734375 4.640625 -6.453125 Z M 13.53125 -6.453125 C 13.53125 -4.359375 12.976562 -2.71875 11.875 -1.53125 C 10.769531 -0.351562 9.234375 0.234375 7.265625 0.234375 C 6.023438 0.234375 4.929688 -0.0351562 3.984375 -0.578125 C 3.046875 -1.117188 2.320312 -1.894531 1.8125 -2.90625 C 1.3125 -3.925781 1.0625 -5.109375 1.0625 -6.453125 C 1.0625 -8.554688 1.609375 -10.191406 2.703125 -11.359375 C 3.804688 -12.523438 5.347656 -13.109375 7.328125 -13.109375 C 8.566406 -13.109375 9.65625 -12.835938 10.59375 -12.296875 C 11.539062 -11.765625 12.265625 -10.992188 12.765625 -9.984375 C 13.273438 -8.984375 13.53125 -7.804688 13.53125 -6.453125 Z M 13.53125 -6.453125 "/></g></g><g transform="translate(86.659514, 26.386305)"><g/></g><g transform="translate(92.782583, 26.386305)"><g><path d="M 5.6875 -8.90625 L 6.859375 -8.90625 C 7.960938 -8.90625 8.785156 -9.125 9.328125 -9.5625 C 9.867188 -10 10.140625 -10.628906 10.140625 -11.453125 C 10.140625 -12.285156 9.910156 -12.898438 9.453125 -13.296875 C 8.992188 -13.703125 8.28125 -13.90625 7.3125 -13.90625 L 5.6875 -13.90625 Z M 13.75 -11.578125 C 13.75 -9.765625 13.179688 -8.378906 12.046875 -7.421875 C 10.910156 -6.460938 9.300781 -5.984375 7.21875 -5.984375 L 5.6875 -5.984375 L 5.6875 0 L 2.125 0 L 2.125 -16.828125 L 7.5 -16.828125 C 9.539062 -16.828125 11.09375 -16.382812 12.15625 -15.5 C 13.21875 -14.625 13.75 -13.316406 13.75 -11.578125 Z M 13.75 -11.578125 "/></g></g><g transform="translate(107.583836, 26.386305)"><g><path d="M 9.03125 -13.109375 C 9.5 -13.109375 9.894531 -13.078125 10.21875 -13.015625 L 9.953125 -9.71875 C 9.660156 -9.789062 9.3125 -9.828125 8.90625 -9.828125 C 7.789062 -9.828125 6.921875 -9.539062 6.296875 -8.96875 C 5.671875 -8.394531 5.359375 -7.585938 5.359375 -6.546875 L 5.359375 0 L 1.84375 0 L 1.84375 -12.875 L 4.5 -12.875 L 5.015625 -10.703125 L 5.1875 -10.703125 C 5.59375 -11.429688 6.132812 -12.015625 6.8125 -12.453125 C 7.488281 -12.890625 8.226562 -13.109375 9.03125 -13.109375 Z M 9.03125 -13.109375 "/></g></g><g transform="translate(118.287697, 26.386305)"><g><path d="M 10.015625 0 L 9.34375 -1.75 L 9.25 -1.75 C 8.65625 -1.007812 8.046875 -0.492188 7.421875 -0.203125 C 6.796875 0.0859375 5.976562 0.234375 4.96875 0.234375 C 3.738281 0.234375 2.765625 -0.117188 2.046875 -0.828125 C 1.335938 -1.535156 0.984375 -2.539062 0.984375 -3.84375 C 0.984375 -5.207031 1.460938 -6.210938 2.421875 -6.859375 C 3.378906 -7.515625 4.820312 -7.875 6.75 -7.9375 L 8.984375 -8.015625 L 8.984375 -8.578125 C 8.984375 -9.878906 8.316406 -10.53125 6.984375 -10.53125 C 5.953125 -10.53125 4.738281 -10.222656 3.34375 -9.609375 L 2.1875 -11.96875 C 3.664062 -12.75 5.304688 -13.140625 7.109375 -13.140625 C 8.835938 -13.140625 10.160156 -12.757812 11.078125 -12 C 12.003906 -11.25 12.46875 -10.109375 12.46875 -8.578125 L 12.46875 0 Z M 8.984375 -5.96875 L 7.625 -5.921875 C 6.601562 -5.890625 5.84375 -5.703125 5.34375 -5.359375 C 4.84375 -5.023438 4.59375 -4.515625 4.59375 -3.828125 C 4.59375 -2.835938 5.160156 -2.34375 6.296875 -2.34375 C 7.109375 -2.34375 7.757812 -2.570312 8.25 -3.03125 C 8.738281 -3.5 8.984375 -4.125 8.984375 -4.90625 Z M 8.984375 -5.96875 "/></g></g><g transform="translate(132.524983, 26.386305)"><g><path d="M 7.0625 0.234375 C 3.0625 0.234375 1.0625 -1.960938 1.0625 -6.359375 C 1.0625 -8.546875 1.601562 -10.21875 2.6875 -11.375 C 3.78125 -12.53125 5.34375 -13.109375 7.375 -13.109375 C 8.863281 -13.109375 10.203125 -12.816406 11.390625 -12.234375 L 10.34375 -9.515625 C 9.789062 -9.742188 9.273438 -9.925781 8.796875 -10.0625 C 8.328125 -10.207031 7.851562 -10.28125 7.375 -10.28125 C 5.550781 -10.28125 4.640625 -8.984375 4.640625 -6.390625 C 4.640625 -3.867188 5.550781 -2.609375 7.375 -2.609375 C 8.050781 -2.609375 8.675781 -2.695312 9.25 -2.875 C 9.832031 -3.0625 10.410156 -3.347656 10.984375 -3.734375 L 10.984375 -0.71875 C 10.410156 -0.363281 9.832031 -0.117188 9.25 0.015625 C 8.675781 0.160156 7.945312 0.234375 7.0625 0.234375 Z M 9.265625 2.875 C 9.265625 3.863281 8.972656 4.578125 8.390625 5.015625 C 7.816406 5.453125 6.921875 5.671875 5.703125 5.671875 C 5.109375 5.671875 4.550781 5.585938 4.03125 5.421875 L 4.03125 3.484375 C 4.238281 3.535156 4.515625 3.585938 4.859375 3.640625 C 5.210938 3.703125 5.484375 3.734375 5.671875 3.734375 C 6.222656 3.734375 6.5 3.492188 6.5 3.015625 C 6.5 2.378906 5.863281 1.960938 4.59375 1.765625 L 5.484375 0 L 7.71875 0 L 7.40625 0.703125 C 7.96875 0.890625 8.414062 1.175781 8.75 1.5625 C 9.09375 1.945312 9.265625 2.382812 9.265625 2.875 Z M 9.265625 2.875 "/></g></g><g transform="translate(144.644516, 26.386305)"><g><path d="M 10.015625 0 L 9.34375 -1.75 L 9.25 -1.75 C 8.65625 -1.007812 8.046875 -0.492188 7.421875 -0.203125 C 6.796875 0.0859375 5.976562 0.234375 4.96875 0.234375 C 3.738281 0.234375 2.765625 -0.117188 2.046875 -0.828125 C 1.335938 -1.535156 0.984375 -2.539062 0.984375 -3.84375 C 0.984375 -5.207031 1.460938 -6.210938 2.421875 -6.859375 C 3.378906 -7.515625 4.820312 -7.875 6.75 -7.9375 L 8.984375 -8.015625 L 8.984375 -8.578125 C 8.984375 -9.878906 8.316406 -10.53125 6.984375 -10.53125 C 5.953125 -10.53125 4.738281 -10.222656 3.34375 -9.609375 L 2.1875 -11.96875 C 3.664062 -12.75 5.304688 -13.140625 7.109375 -13.140625 C 8.835938 -13.140625 10.160156 -12.757812 11.078125 -12 C 12.003906 -11.25 12.46875 -10.109375 12.46875 -8.578125 L 12.46875 0 Z M 8.984375 -5.96875 L 7.625 -5.921875 C 6.601562 -5.890625 5.84375 -5.703125 5.34375 -5.359375 C 4.84375 -5.023438 4.59375 -4.515625 4.59375 -3.828125 C 4.59375 -2.835938 5.160156 -2.34375 6.296875 -2.34375 C 7.109375 -2.34375 7.757812 -2.570312 8.25 -3.03125 C 8.738281 -3.5 8.984375 -4.125 8.984375 -4.90625 Z M 8.984375 -5.96875 "/></g></g><g transform="translate(158.881802, 26.386305)"><g><path d="M 10.828125 -3.828125 C 10.828125 -2.503906 10.367188 -1.492188 9.453125 -0.796875 C 8.535156 -0.109375 7.160156 0.234375 5.328125 0.234375 C 4.390625 0.234375 3.59375 0.164062 2.9375 0.03125 C 2.28125 -0.09375 1.660156 -0.273438 1.078125 -0.515625 L 1.078125 -3.421875 C 1.734375 -3.109375 2.46875 -2.847656 3.28125 -2.640625 C 4.101562 -2.441406 4.828125 -2.34375 5.453125 -2.34375 C 6.722656 -2.34375 7.359375 -2.707031 7.359375 -3.4375 C 7.359375 -3.71875 7.269531 -3.941406 7.09375 -4.109375 C 6.925781 -4.285156 6.632812 -4.484375 6.21875 -4.703125 C 5.8125 -4.921875 5.265625 -5.175781 4.578125 -5.46875 C 3.578125 -5.882812 2.84375 -6.269531 2.375 -6.625 C 1.914062 -6.976562 1.582031 -7.378906 1.375 -7.828125 C 1.164062 -8.285156 1.0625 -8.847656 1.0625 -9.515625 C 1.0625 -10.660156 1.503906 -11.546875 2.390625 -12.171875 C 3.273438 -12.796875 4.53125 -13.109375 6.15625 -13.109375 C 7.707031 -13.109375 9.21875 -12.769531 10.6875 -12.09375 L 9.625 -9.5625 C 8.976562 -9.84375 8.375 -10.070312 7.8125 -10.25 C 7.257812 -10.425781 6.691406 -10.515625 6.109375 -10.515625 C 5.066406 -10.515625 4.546875 -10.234375 4.546875 -9.671875 C 4.546875 -9.359375 4.710938 -9.085938 5.046875 -8.859375 C 5.378906 -8.628906 6.109375 -8.285156 7.234375 -7.828125 C 8.242188 -7.421875 8.984375 -7.039062 9.453125 -6.6875 C 9.921875 -6.332031 10.265625 -5.925781 10.484375 -5.46875 C 10.710938 -5.007812 10.828125 -4.460938 10.828125 -3.828125 Z M 10.828125 -3.828125 "/></g></g></g></g></g><g clip-path="url(#2936e35089)"><path fill="#ffffff" d="M 25.851562 19.785156 L 50.523438 19.785156 C 51.992188 19.785156 53.1875 18.59375 53.1875 17.125 C 53.1875 15.652344 51.992188 14.460938 50.523438 14.460938 L 25.851562 14.460938 C 24.378906 14.460938 23.1875 15.652344 23.1875 17.125 C 23.1875 18.59375 24.378906 19.785156 25.851562 19.785156 Z M 25.851562 19.785156 " fill-opacity="1" fill-rule="nonzero"/></g><g clip-path="url(#8ac321e6f4)"><path fill="#ffffff" d="M 50.523438 24.882812 L 25.851562 24.882812 C 24.378906 24.882812 23.1875 26.074219 23.1875 27.542969 C 23.1875 29.015625 24.378906 30.207031 25.851562 30.207031 L 50.523438 30.207031 C 51.992188 30.207031 53.1875 29.015625 53.1875 27.542969 C 53.1875 26.074219 51.992188 24.882812 50.523438 24.882812 Z M 50.523438 24.882812 " fill-opacity="1" fill-rule="nonzero"/></g><g clip-path="url(#b5377e71eb)"><path fill="#ffffff" d="M 50.523438 35.300781 L 25.851562 35.300781 C 24.378906 35.300781 23.1875 36.492188 23.1875 37.964844 C 23.1875 39.433594 24.378906 40.625 25.851562 40.625 L 50.523438 40.625 C 51.992188 40.625 53.1875 39.433594 53.1875 37.964844 C 53.1875 36.492188 51.992188 35.300781 50.523438 35.300781 Z M 50.523438 35.300781 " fill-opacity="1" fill-rule="nonzero"/></g><g clip-path="url(#ac6c3271da)"><path fill="#ffffff" d="M 666.835938 575.851562 C 419.917969 575.851562 173.015625 575.851562 -73.90625 575.851562 L -73.90625 -311.328125 C 86.410156 -311.328125 246.722656 -311.328125 407.015625 -311.328125 C 292.375 -148.105469 292.019531 -42.175781 310.847656 23.191406 C 367.34375 219.453125 660.519531 272.007812 678.316406 479.664062 C 681.9375 521.820312 673.011719 556.617188 666.835938 575.851562 Z M 666.835938 575.851562 " fill-opacity="1" fill-rule="nonzero"/></g></svg>